<?xml version="1.0" encoding="utf-8"?>
<!-- Generator: Adobe Illustrator 18.1.1, SVG Export Plug-In . SVG Version: 6.00 Build 0)  -->
<!DOCTYPE svg PUBLIC "-//W3C//DTD SVG 1.1//EN" "http://www.w3.org/Graphics/SVG/1.1/DTD/svg11.dtd">
<svg version="1.1" id="Layer_1" xmlns="http://www.w3.org/2000/svg" xmlns:xlink="http://www.w3.org/1999/xlink" x="0px" y="0px"
	 viewBox="0 322 1000 356" enable-background="new 0 322 1000 356" xml:space="preserve">
<g>
	<g>
		<path fill="#FFFFFF" d="M168.3,549.4H180c0,4.4,2.8,6.1,6.1,6.1s6.1-1.7,6.1-5s-3.3-5-6.1-5c-0.6,0-4.4,0-8.3-1.7
			c-6.1-2.8-9.4-7.8-9.4-14.4c0-10,8.3-16.1,17.2-16.1c9.4,0,17.2,7.2,17.2,17.8h-11.7c0-4.4-2.8-6.1-6.1-6.1s-6.1,1.7-6.1,5
			c0,3.3,2.8,5,6.1,5c0.6,0,4.4,0,8.3,1.7c6.1,2.8,9.4,7.8,9.4,14.4c0,10-8.3,16.7-17.2,16.7C176.1,567.2,168.3,560,168.3,549.4z"/>
		<path fill="#FFFFFF" d="M302.2,524.4v10h25.6v11.7h-25.6v21.1h-11.7v-53.9h37.2V525h-25.6V524.4z"/>
		<path fill="#FFFFFF" d="M444.4,524.4h-12.8v42.8H420v-42.8h-12.8v-11.7h37.2V524.4z"/>
		<path fill="#FFFFFF" d="M590,567.2h-11.7v-26.1c-3.9,8.9-8.3,17.8-12.2,26.1h-10L542.8,540v27.2h-11.7v-54.4h11.1l18.3,37.8
			l10.6-22.8l7.2-15h11.1v54.4H590z"/>
		<path fill="#FFFFFF" d="M703.3,512.8h12.8l-4.4,9.4l-6.7,13.9c5,2.2,9.4,6.1,9.4,14.4c0,16.1-18.3,16.1-18.3,16.1h-18.3v-53.9
			h11.7v21.1h4.4L703.3,512.8z M688.9,555.6h7.2c0,0,7.2,0,7.2-5s-7.2-5-7.2-5h-7.2V555.6z"/>
		<path fill="#FFFFFF" d="M832.2,561.1h-15.6l-2.8,6.7h-12.2l22.8-56.7l22.8,56.7H835L832.2,561.1z M827.8,550l-0.6-2.2l-2.2-5.6
			l-3.3,7.8H827.8z"/>
		<rect x="476.1" y="550.6" fill="#FFFFFF" width="16.7" height="16.7"/>
		<g>
			<polygon fill="#FFFFFF" points="101.7,527.2 101.7,445 898.3,445 898.3,527.2 906.1,527.2 906.1,437.8 93.9,437.8 93.9,527.2 			
				"/>
			<polygon fill="#FFFFFF" points="898.3,559.4 898.3,635 101.7,635 101.7,559.4 93.9,559.4 93.9,642.2 906.1,642.2 906.1,559.4 			
				"/>
		</g>
		<rect x="203.3" y="550.6" fill="#FFFFFF" fill-opacity="0" width="87.2" height="16.7"/>
		<rect x="302.2" y="551.1" fill="#FFFFFF" fill-opacity="0" width="87.2" height="16.7"/>
		<rect x="572.2" y="550.6" fill="#FFFFFF" fill-opacity="0" width="87.2" height="16.7"/>
		<rect x="696.1" y="551.1" fill="#FFFFFF" fill-opacity="0" width="87.2" height="16.7"/>
		<rect x="401.1" y="556.7" fill="#FFFFFF" fill-opacity="0" width="21.1" height="9.4"/>
		<rect x="438.3" y="556.7" fill="#FFFFFF" fill-opacity="0" width="21.1" height="9.4"/>
	</g>
	<g>
		<path fill="#FFFFFF" d="M168.3,549.4H180c0,4.4,2.8,6.1,6.1,6.1s6.1-1.7,6.1-5s-3.3-5-6.1-5c-0.6,0-4.4,0-8.3-1.7
			c-6.1-2.8-9.4-7.8-9.4-14.4c0-10,8.3-16.1,17.2-16.1c9.4,0,17.2,7.2,17.2,17.8h-11.7c0-4.4-2.8-6.1-6.1-6.1s-6.1,1.7-6.1,5
			c0,3.3,2.8,5,6.1,5c0.6,0,4.4,0,8.3,1.7c6.1,2.8,9.4,7.8,9.4,14.4c0,10-8.3,16.7-17.2,16.7C176.1,567.2,168.3,560,168.3,549.4z"/>
		<path fill="#FFFFFF" d="M302.2,524.4v10h25.6v11.7h-25.6v21.1h-11.7v-53.9h37.2V525h-25.6V524.4z"/>
		<path fill="#FFFFFF" d="M444.4,524.4h-12.8v42.8H420v-42.8h-12.8v-11.7h37.2V524.4z"/>
		<path fill="#FFFFFF" d="M590,567.2h-11.7v-26.1c-3.9,8.9-8.3,17.8-12.2,26.1h-10L542.8,540v27.2h-11.7v-54.4h11.1l18.3,37.8
			l10.6-22.8l7.2-15h11.1v54.4H590z"/>
		<path fill="#FFFFFF" d="M703.3,512.8h12.8l-4.4,9.4l-6.7,13.9c5,2.2,9.4,6.1,9.4,14.4c0,16.1-18.3,16.1-18.3,16.1h-18.3v-53.9
			h11.7v21.1h4.4L703.3,512.8z M688.9,555.6h7.2c0,0,7.2,0,7.2-5s-7.2-5-7.2-5h-7.2V555.6z"/>
		<path fill="#FFFFFF" d="M832.2,561.1h-15.6l-2.8,6.7h-12.2l22.8-56.7l22.8,56.7H835L832.2,561.1z M827.8,550l-0.6-2.2l-2.2-5.6
			l-3.3,7.8H827.8z"/>
		<rect x="476.1" y="550.6" fill="#FFFFFF" width="16.7" height="16.7"/>
		<g>
			<polygon fill="#FFFFFF" points="101.7,527.2 101.7,445 898.3,445 898.3,527.2 906.1,527.2 906.1,437.8 93.9,437.8 93.9,527.2 			
				"/>
			<polygon fill="#FFFFFF" points="898.3,559.4 898.3,635 101.7,635 101.7,559.4 93.9,559.4 93.9,642.2 906.1,642.2 906.1,559.4 			
				"/>
		</g>
		<rect x="203.3" y="550.6" fill="#FFFFFF" fill-opacity="0" width="87.2" height="16.7"/>
		<rect x="302.2" y="551.1" fill="#FFFFFF" fill-opacity="0" width="87.2" height="16.7"/>
		<rect x="572.2" y="550.6" fill="#FFFFFF" fill-opacity="0" width="87.2" height="16.7"/>
		<rect x="696.1" y="551.1" fill="#FFFFFF" fill-opacity="0" width="87.2" height="16.7"/>
		<rect x="401.1" y="556.7" fill="#FFFFFF" fill-opacity="0" width="21.1" height="9.4"/>
		<rect x="438.3" y="556.7" fill="#FFFFFF" fill-opacity="0" width="21.1" height="9.4"/>
	</g>
	<g>
		<path fill="#FFFFFF" d="M168.3,549.4H180c0,4.4,2.8,6.1,6.1,6.1s6.1-1.7,6.1-5s-3.3-5-6.1-5c-0.6,0-4.4,0-8.3-1.7
			c-6.1-2.8-9.4-7.8-9.4-14.4c0-10,8.3-16.1,17.2-16.1c9.4,0,17.2,7.2,17.2,17.8h-11.7c0-4.4-2.8-6.1-6.1-6.1s-6.1,1.7-6.1,5
			c0,3.3,2.8,5,6.1,5c0.6,0,4.4,0,8.3,1.7c6.1,2.8,9.4,7.8,9.4,14.4c0,10-8.3,16.7-17.2,16.7C176.1,567.2,168.3,560,168.3,549.4z"/>
		<path fill="#FFFFFF" d="M302.2,524.4v10h25.6v11.7h-25.6v21.1h-11.7v-53.9h37.2V525h-25.6V524.4z"/>
		<path fill="#FFFFFF" d="M444.4,524.4h-12.8v42.8H420v-42.8h-12.8v-11.7h37.2V524.4z"/>
		<path fill="#FFFFFF" d="M590,567.2h-11.7v-26.1c-3.9,8.9-8.3,17.8-12.2,26.1h-10L542.8,540v27.2h-11.7v-54.4h11.1l18.3,37.8
			l10.6-22.8l7.2-15h11.1v54.4H590z"/>
		<path fill="#FFFFFF" d="M703.3,512.8h12.8l-4.4,9.4l-6.7,13.9c5,2.2,9.4,6.1,9.4,14.4c0,16.1-18.3,16.1-18.3,16.1h-18.3v-53.9
			h11.7v21.1h4.4L703.3,512.8z M688.9,555.6h7.2c0,0,7.2,0,7.2-5s-7.2-5-7.2-5h-7.2V555.6z"/>
		<path fill="#FFFFFF" d="M832.2,561.1h-15.6l-2.8,6.7h-12.2l22.8-56.7l22.8,56.7H835L832.2,561.1z M827.8,550l-0.6-2.2l-2.2-5.6
			l-3.3,7.8H827.8z"/>
		<rect x="476.1" y="550.6" fill="#FFFFFF" width="16.7" height="16.7"/>
		<g>
			<polygon fill="#FFFFFF" points="101.7,527.2 101.7,445 898.3,445 898.3,527.2 906.1,527.2 906.1,437.8 93.9,437.8 93.9,527.2 			
				"/>
			<polygon fill="#FFFFFF" points="898.3,559.4 898.3,635 101.7,635 101.7,559.4 93.9,559.4 93.9,642.2 906.1,642.2 906.1,559.4 			
				"/>
		</g>
		<rect x="203.3" y="550.6" fill="#FFFFFF" fill-opacity="0" width="87.2" height="16.7"/>
		<rect x="302.2" y="551.1" fill="#FFFFFF" fill-opacity="0" width="87.2" height="16.7"/>
		<rect x="572.2" y="550.6" fill="#FFFFFF" fill-opacity="0" width="87.2" height="16.7"/>
		<rect x="696.1" y="551.1" fill="#FFFFFF" fill-opacity="0" width="87.2" height="16.7"/>
		<rect x="401.1" y="556.7" fill="#FFFFFF" fill-opacity="0" width="21.1" height="9.4"/>
		<rect x="438.3" y="556.7" fill="#FFFFFF" fill-opacity="0" width="21.1" height="9.4"/>
	</g>
	<g>
		<path fill="#FFFFFF" d="M168.3,549.4H180c0,4.4,2.8,6.1,6.1,6.1s6.1-1.7,6.1-5s-3.3-5-6.1-5c-0.6,0-4.4,0-8.3-1.7
			c-6.1-2.8-9.4-7.8-9.4-14.4c0-10,8.3-16.1,17.2-16.1c9.4,0,17.2,7.2,17.2,17.8h-11.7c0-4.4-2.8-6.1-6.1-6.1s-6.1,1.7-6.1,5
			c0,3.3,2.8,5,6.1,5c0.6,0,4.4,0,8.3,1.7c6.1,2.8,9.4,7.8,9.4,14.4c0,10-8.3,16.7-17.2,16.7C176.1,567.2,168.3,560,168.3,549.4z"/>
		<path fill="#FFFFFF" d="M302.2,524.4v10h25.6v11.7h-25.6v21.1h-11.7v-53.9h37.2V525h-25.6V524.4z"/>
		<path fill="#FFFFFF" d="M444.4,524.4h-12.8v42.8H420v-42.8h-12.8v-11.7h37.2V524.4z"/>
		<path fill="#FFFFFF" d="M590,567.2h-11.7v-26.1c-3.9,8.9-8.3,17.8-12.2,26.1h-10L542.8,540v27.2h-11.7v-54.4h11.1l18.3,37.8
			l10.6-22.8l7.2-15h11.1v54.4H590z"/>
		<path fill="#FFFFFF" d="M703.3,512.8h12.8l-4.4,9.4l-6.7,13.9c5,2.2,9.4,6.1,9.4,14.4c0,16.1-18.3,16.1-18.3,16.1h-18.3v-53.9
			h11.7v21.1h4.4L703.3,512.8z M688.9,555.6h7.2c0,0,7.2,0,7.2-5s-7.2-5-7.2-5h-7.2V555.6z"/>
		<path fill="#FFFFFF" d="M832.2,561.1h-15.6l-2.8,6.7h-12.2l22.8-56.7l22.8,56.7H835L832.2,561.1z M827.8,550l-0.6-2.2l-2.2-5.6
			l-3.3,7.8H827.8z"/>
		<rect x="476.1" y="550.6" fill="#FFFFFF" width="16.7" height="16.7"/>
		<g>
			<polygon fill="#FFFFFF" points="101.7,527.2 101.7,445 898.3,445 898.3,527.2 906.1,527.2 906.1,437.8 93.9,437.8 93.9,527.2 			
				"/>
			<polygon fill="#FFFFFF" points="898.3,559.4 898.3,635 101.7,635 101.7,559.4 93.9,559.4 93.9,642.2 906.1,642.2 906.1,559.4 			
				"/>
		</g>
		<rect x="203.3" y="550.6" fill="#FFFFFF" fill-opacity="0" width="87.2" height="16.7"/>
		<rect x="302.2" y="551.1" fill="#FFFFFF" fill-opacity="0" width="87.2" height="16.7"/>
		<rect x="572.2" y="550.6" fill="#FFFFFF" fill-opacity="0" width="87.2" height="16.7"/>
		<rect x="696.1" y="551.1" fill="#FFFFFF" fill-opacity="0" width="87.2" height="16.7"/>
		<rect x="401.1" y="556.7" fill="#FFFFFF" fill-opacity="0" width="21.1" height="9.4"/>
		<rect x="438.3" y="556.7" fill="#FFFFFF" fill-opacity="0" width="21.1" height="9.4"/>
	</g>
</g>
</svg>
